<?xml version="1.0" encoding="utf-8"?>
<!-- Generator: Adobe Illustrator 15.1.0, SVG Export Plug-In . SVG Version: 6.00 Build 0)  -->
<!DOCTYPE svg PUBLIC "-//W3C//DTD SVG 1.1//EN" "http://www.w3.org/Graphics/SVG/1.1/DTD/svg11.dtd">
<svg version="1.1" id="Layer_1" xmlns="http://www.w3.org/2000/svg" xmlns:xlink="http://www.w3.org/1999/xlink" x="0px" y="0px"
	 width="612px" height="792px" viewBox="0 0 612 792" enable-background="new 0 0 612 792" xml:space="preserve">
<path fill-rule="evenodd" clip-rule="evenodd" stroke="#000000" stroke-width="2.9999" stroke-linecap="round" stroke-linejoin="round" stroke-miterlimit="22.9256" d="
	M94.247,128.088c9.128-13.76,25.439-31.446,58.803-48.745c33.364-17.299,83.781-34.212,139.536-37.057
	c55.755-2.844,116.847,8.378,153.889,17.13c18.124,4.282,30.488,7.972,39.382,11.155c3.406-9.498,6.813-19.023,10.22-28.55
	c2.38-6.67,9.717-10.148,16.387-7.768c6.671,2.38,10.148,9.718,7.769,16.388c-3.664,10.248-7.329,20.494-10.997,30.717
	c5.553,3.225,8.359,5.587,9.52,8.341c1.427,3.386,0.364,7.365-2.37,15.972c-2.734,8.607-7.14,21.843-10.628,32.031
	c-3.488,10.189-6.061,17.33-9.523,18.963c-2.542,1.198-5.563-0.571-12.764-4.576c-3.957,10.634-7.932,21.174-11.927,31.59
	c-16.392,42.74-33.014,82.979-50.091,118.219c-18.777,38.747-37.81,70.841-55.179,100.133
	c-14.144,23.852-27.178,45.83-37.582,67.094c-11.646,23.8-20.579,47.626-27.341,71.101c-6.768,23.492-11.385,46.733-14.387,69.313
	c-3.013,22.662-4.389,44.598-4.945,66.169c-0.564,21.87-0.299,43.369-0.033,64.865c0.083,7.058-5.572,12.847-12.629,12.93
	c-7.057,0.083-12.847-5.571-12.93-12.629c-0.269-21.801-0.538-43.604,0.034-65.768c0.579-22.463,2.011-45.297,5.146-68.875
	c3.145-23.658,8.017-48.128,15.188-73.022c7.177-24.913,16.636-50.154,28.945-75.31c11.194-22.876,24.282-44.946,38.484-68.898
	c17.161-28.939,35.965-60.648,54.177-98.228c16.6-34.253,32.956-73.889,49.189-116.214c4.296-11.202,8.594-22.622,12.892-34.204
	c-14.437-6.771-33.602-14.948-54.97-22.825c-28.862-10.641-61.744-20.736-98.685-25.072c-36.94-4.336-77.94-2.913-109.959,1.191
	c-32.02,4.104-55.059,10.888-72.431,20.92c-17.371,10.033-29.075,23.313-35.332,31.679c-6.258,8.366-7.069,11.817-6.501,8.626
	C83.17,151.683,85.118,141.849,94.247,128.088z"/>
</svg>
