<svg id="Layer_1" data-name="Layer 1" xmlns="http://www.w3.org/2000/svg" viewBox="0 0 395.222 450.022"><title>Skull</title><path d="M342.935,603.635c39.211,50.975,90.187,15.685,98.029,19.606s11.763,11.763,7.842,27.448c0,0-12.279,12.09-15.684,27.448,0,0-7.843,23.527-3.922,27.448s10.041,8.447,16.013,5.579c0,0,11.956,13.047,27.12,10.051,0,0,14.7,7.864,24.492,5.547,0,0,14.676,9.2,26,2.317,11.323,6.878,26-2.317,26-2.317,9.788,2.317,24.493-5.547,24.493-5.547,15.163,3,27.12-10.051,27.12-10.051,5.971,2.868,12.091-1.658,16.012-5.579s-3.921-27.448-3.921-27.448c-3.4-15.358-15.685-27.448-15.685-27.448-3.921-15.685,0-23.527,7.843-27.448s58.817,31.369,98.029-19.606,1.692-98.139-2.229-109.9c0,0,7.13-90.077-5.124-118.995-30.544-72.084-64.208-93.128-172.536-93.128s-141.992,21.044-172.536,93.128c-12.253,28.918-5.124,119-5.124,119C341.242,505.5,303.723,552.66,342.935,603.635ZM569.882,503.156c23.527-15.195,62.739-30.389,80.221-8.333,11.552,14.576,2.831,56.879-17.482,73.032s-51.955,6.372-71.708-8.823S546.355,518.35,569.882,503.156Zm-47.059,85.775s32.365,22.927,24.273,39.646-24.273-11.708-24.273-11.708-16.18,28.429-24.272,11.708S522.823,588.931,522.823,588.931Zm-127.28-94.108c17.483-22.056,56.694-6.862,80.221,8.333s28.722,40.682,8.969,55.876-51.394,24.975-71.707,8.823S383.991,509.4,395.543,494.823Z" transform="translate(-325.212 -281.61)"/></svg>